<svg width="16" height="16" viewBox="0 0 16 16" fill="none" xmlns="http://www.w3.org/2000/svg">
<path d="M8 4.14343C4.227 4.14343 1.25 8.00043 1.25 8.00043C1.25 8.00043 4.227 11.8579 8 11.8579C10.885 11.8579 14.75 8.00043 14.75 8.00043C14.75 8.00043 10.885 4.14343 8 4.14343ZM8 10.4034C6.675 10.4034 5.5965 9.32543 5.5965 8.00043C5.5965 6.67543 6.675 5.59693 8 5.59693C9.325 5.59693 10.4035 6.67543 10.4035 8.00043C10.4035 9.32543 9.325 10.4039 8 10.4039V10.4034ZM8 6.59743C7.81356 6.59391 7.62829 6.62759 7.45502 6.69651C7.28174 6.76542 7.12395 6.86819 6.99085 6.99879C6.85776 7.1294 6.75203 7.28523 6.67986 7.45717C6.60769 7.62911 6.57052 7.81371 6.57052 8.00018C6.57052 8.18666 6.60769 8.37126 6.67986 8.5432C6.75203 8.71514 6.85776 8.87097 6.99085 9.00157C7.12395 9.13218 7.28174 9.23494 7.45502 9.30386C7.62829 9.37277 7.81356 9.40645 8 9.40293C8.36745 9.396 8.7175 9.24516 8.97491 8.98285C9.23231 8.72053 9.37652 8.36769 9.37652 8.00018C9.37652 7.63267 9.23231 7.27983 8.97491 7.01752C8.7175 6.75521 8.36745 6.60437 8 6.59743Z" fill="#424242"/>
</svg>
